<svg xmlns="http://www.w3.org/2000/svg" width="30.872" height="30.873" viewBox="0 0 30.872 30.873"><defs><style>.a{fill:#52f1ec;}</style></defs><g transform="translate(0 0)"><path class="a" d="M226.629,7.4a.369.369,0,0,0,.261-.63l-1.665-1.665a.369.369,0,0,0-.522,0l-1.665,1.665a.369.369,0,0,0,.522.522l.976-.976V9.43a.369.369,0,0,0,.738,0V6.252a.366.366,0,0,0,0-.055l1.1,1.1A.368.368,0,0,0,226.629,7.4Z" transform="translate(-209.528 -5)"/><path class="a" d="M223.038,431.469a.369.369,0,0,0,0,.522l1.665,1.665a.369.369,0,0,0,.522,0l1.665-1.665a.369.369,0,1,0-.522-.522l-.976.976v-3.111a.369.369,0,1,0-.738,0v3.178a.367.367,0,0,0,0,.055l-1.1-1.1A.369.369,0,0,0,223.038,431.469Z" transform="translate(-209.528 -402.892)"/><path class="a" d="M7.295,226.368l-.976-.976H9.43a.369.369,0,1,0,0-.738H6.252a.369.369,0,0,0-.055,0l1.1-1.1a.369.369,0,1,0-.522-.522L5.108,224.7a.369.369,0,0,0,0,.522l1.665,1.665a.369.369,0,1,0,.522-.522Z" transform="translate(-5 -209.528)"/><path class="a" d="M433.656,224.7l-1.665-1.665a.369.369,0,0,0-.522.522l.976.976h-3.111a.369.369,0,1,0,0,.738h3.178a.374.374,0,0,0,.055,0l-1.1,1.1a.369.369,0,0,0,.522.522l1.665-1.665a.369.369,0,0,0,0-.522Z" transform="translate(-402.891 -209.528)"/><path class="a" d="M79.851,77.128a.369.369,0,0,0-.369-.369H77.128a.369.369,0,0,0-.369.369v2.354a.369.369,0,0,0,.738,0V78.1l2.2,2.2a.369.369,0,1,0,.522-.522l-2.247-2.248a.368.368,0,0,0-.044-.036h1.555A.369.369,0,0,0,79.851,77.128Z" transform="translate(-72.346 -72.346)"/><path class="a" d="M380.423,376.427a.369.369,0,0,0-.369.369v1.38l-2.2-2.2a.369.369,0,0,0-.522.522l2.247,2.247a.364.364,0,0,0,.044.036h-1.555a.369.369,0,0,0,0,.738h2.354a.369.369,0,0,0,.369-.369V376.8A.369.369,0,0,0,380.423,376.427Z" transform="translate(-354.332 -353.059)"/><path class="a" d="M379.519,79.482V77.128a.369.369,0,0,0-.369-.369H376.8a.369.369,0,0,0,0,.738h1.38l-2.2,2.2a.369.369,0,1,0,.522.522l2.247-2.247a.357.357,0,0,0,.036-.044v1.555a.369.369,0,0,0,.738,0Z" transform="translate(-353.059 -72.346)"/><path class="a" d="M80.3,377.332a.369.369,0,0,0-.522,0l-2.247,2.247a.369.369,0,0,0-.036.044v-1.555a.369.369,0,0,0-.738,0v2.354a.369.369,0,0,0,.369.369h2.354a.369.369,0,0,0,0-.738H78.1l2.2-2.2A.369.369,0,0,0,80.3,377.332Z" transform="translate(-72.346 -354.332)"/><path class="a" d="M227.079,140.495l-7.808,3.123v5.952l7.808,3.123Z" transform="translate(-206.094 -132.162)"/><rect class="a" width="0.629" height="5.714" transform="translate(11.81 11.575)"/><path class="a" d="M125.877,198.93v-5.714H123.34a1.342,1.342,0,0,0-1.34,1.34v3.034a1.342,1.342,0,0,0,1.34,1.34Z" transform="translate(-114.805 -181.641)"/><path class="a" d="M360.183,209.008a1.9,1.9,0,0,0-1.9-1.9h-.058V210.9h.058A1.9,1.9,0,0,0,360.183,209.008Z" transform="translate(-336.506 -194.682)"/><path class="a" d="M144.911,302.787a1.3,1.3,0,0,0,1.253-1.645l-.839-3.044H142.7l-.072,0,1.03,3.736A1.3,1.3,0,0,0,144.911,302.787Z" transform="translate(-134.165 -280.071)"/></g></svg>