<svg xmlns="http://www.w3.org/2000/svg" width="29.928" height="19.29" viewBox="0 0 29.928 19.29"><defs><style>.a{fill:#52f1ec;}</style></defs><g transform="translate(29.928 19.29) rotate(180)"><g transform="translate(22.914 12.275)"><path class="a" d="M.877,0a.877.877,0,1,0,.877.877A.877.877,0,0,0,.877,0Z"/></g><g transform="translate(0 0)"><path class="a" d="M29.052,0H8.841V2.63a.877.877,0,1,1-1.754,0V0H.877A.876.876,0,0,0,0,.877V6.138a.876.876,0,0,0,.877.877,2.63,2.63,0,0,1,0,5.261A.876.876,0,0,0,0,13.152v5.261a.876.876,0,0,0,.877.877H7.014v-2.63a.877.877,0,1,1,1.754,0v2.63H29.052a.876.876,0,0,0,.877-.877V.877A.876.876,0,0,0,29.052,0ZM8.768,13.152a.877.877,0,0,1-1.754,0V11.4a.877.877,0,0,1,1.754,0Zm0-5.261a.877.877,0,0,1-1.754,0V6.138a.877.877,0,1,1,1.754,0Zm5.378-1.754a2.63,2.63,0,1,1,2.63,2.63A2.633,2.633,0,0,1,14.146,6.138Zm2.144,9.5a.876.876,0,0,1-.243-1.216L23.061,3.9a.877.877,0,1,1,1.459.973L17.506,15.392A.877.877,0,0,1,16.29,15.635Zm7.5.147a2.63,2.63,0,1,1,2.63-2.63A2.633,2.633,0,0,1,23.791,15.783Z"/></g><g transform="translate(15.899 5.261)"><path class="a" d="M.877,0a.877.877,0,1,0,.877.877A.877.877,0,0,0,.877,0Z"/></g></g></svg>