<svg xmlns="http://www.w3.org/2000/svg" width="30.745" height="34.235" viewBox="0 0 30.745 34.235"><defs><style>.a{fill:#52f1ec;}</style></defs><g transform="translate(0)"><g transform="translate(0)"><path class="a" d="M189.294,295.379l9.09,3.113,7.959-7.958-9.153-3.051Zm4.093-.486a1.724,1.724,0,0,1-1.753.465c-.486-.225-.491-.8-.009-1.278a1.724,1.724,0,0,1,1.753-.465C193.865,293.839,193.869,294.411,193.387,294.893Zm2.936,1.028a1.725,1.725,0,0,1-1.753.465c-.486-.225-.491-.8-.009-1.278a1.725,1.725,0,0,1,1.753-.465C196.8,294.868,196.8,295.44,196.323,295.921Zm5.919-4.6a1.725,1.725,0,0,1,1.753-.465c.486.225.491.8.01,1.278a1.724,1.724,0,0,1-1.753.465C201.764,292.37,201.76,291.8,202.242,291.317Zm-2.927-.962a1.725,1.725,0,0,1,1.753-.465c.486.225.491.8.009,1.278a1.725,1.725,0,0,1-1.753.465C198.837,291.408,198.833,290.836,199.315,290.355Zm-.074,5.25c.486.225.491.8.009,1.278a1.725,1.725,0,0,1-1.753.465c-.487-.225-.491-.8-.01-1.278A1.727,1.727,0,0,1,199.241,295.605Zm-1.109-6.744c.486.225.491.8.009,1.278a1.724,1.724,0,0,1-1.753.465c-.486-.225-.491-.8-.009-1.278A1.725,1.725,0,0,1,198.132,288.861Z" transform="translate(-175.746 -264.258)"/><path class="a" d="M265.367,174.839l-3.005-9.017-9.017-3.006,3.005,9.016Zm-6.7-7.07c.337-.337,1.013-.206,1.511.292s.629,1.175.292,1.511-1.013.206-1.511-.292S258.335,168.105,258.672,167.768Z" transform="translate(-234.623 -149.662)"/><path class="a" d="M38.441,0l-8.5,4.251L38.44,8.5l8.5-4.251Zm0,5.113c-.7,0-1.275-.386-1.275-.862s.571-.862,1.275-.862,1.275.386,1.275.862S39.144,5.113,38.441,5.113Z" transform="translate(-29.265)"/><path class="a" d="M143.554,74.694c.406-.15.746.087.863.541l5.091-5.091,1.035.345v-6.96l-8.63,4.315v9.9l.872-.872a1.225,1.225,0,0,1-.142-.6A1.725,1.725,0,0,1,143.554,74.694Zm5.553-9.28c.5-.185.91.216.91.9a1.724,1.724,0,0,1-.91,1.569c-.5.185-.91-.216-.91-.9A1.724,1.724,0,0,1,149.107,65.414Zm-2.594,4.454c.5-.185.91.216.91.9a1.724,1.724,0,0,1-.91,1.569c-.5.185-.91-.216-.91-.9A1.725,1.725,0,0,1,146.512,69.869Zm-3.869-.148a1.724,1.724,0,0,1,.91-1.569c.5-.185.91.216.91.9a1.724,1.724,0,0,1-.91,1.569C143.051,70.8,142.643,70.4,142.643,69.721Z" transform="translate(-132.193 -58.397)"/><path class="a" d="M21.6,74.784l8.508,4.167.122-.122V67.844L21.6,63.529Zm6.968-.09a1.724,1.724,0,0,1,.91,1.569c0,.681-.407,1.082-.91.9a1.724,1.724,0,0,1-.91-1.568C27.657,74.91,28.065,74.509,28.567,74.694Zm-2.653-4.963a1.724,1.724,0,0,1,.91,1.569c0,.681-.407,1.082-.91.9A1.724,1.724,0,0,1,25,70.628C25,69.947,25.411,69.546,25.914,69.731Zm-2.731-4.317a1.724,1.724,0,0,1,.91,1.569c0,.681-.407,1.082-.91.9a1.724,1.724,0,0,1-.91-1.569C22.273,65.631,22.68,65.229,23.183,65.414Z" transform="translate(-21.599 -58.397)"/><path class="a" d="M149.171,164.639l-7.959,7.958,3.114,9.091,7.9-7.9Zm-3.4,14.051c-.481.482-1.054.477-1.278-.01a1.725,1.725,0,0,1,.465-1.753c.482-.481,1.054-.477,1.278.009A1.726,1.726,0,0,1,145.772,178.69Zm2.656-9.435c-.481.481-1.054.477-1.278-.009a1.725,1.725,0,0,1,.465-1.753c.481-.481,1.054-.477,1.278.009A1.724,1.724,0,0,1,148.427,169.255Z" transform="translate(-131.549 -151.338)"/></g></g></svg>