<svg xmlns="http://www.w3.org/2000/svg" width="21.913" height="16.435" viewBox="0 0 21.913 16.435"><defs><style>.a{fill:#5064cc;}</style></defs><g transform="translate(0 0)"><g transform="translate(0 0)"><path class="a" d="M7.075,65.333c3.007,2.547,8.285,7.028,9.836,8.425a.916.916,0,0,0,1.325,0c1.552-1.4,6.83-5.88,9.837-8.427a.456.456,0,0,0,.064-.63A1.813,1.813,0,0,0,26.7,64H8.444a1.813,1.813,0,0,0-1.433.7A.456.456,0,0,0,7.075,65.333Z" transform="translate(-6.618 -64)"/><path class="a" d="M21.648,126.454a.454.454,0,0,0-.487.066c-3.335,2.827-7.592,6.451-8.931,7.658a1.849,1.849,0,0,1-2.548,0c-1.428-1.286-6.208-5.35-8.93-7.657a.457.457,0,0,0-.752.348v11.481a1.828,1.828,0,0,0,1.826,1.826H20.087a1.828,1.828,0,0,0,1.826-1.826V126.868A.456.456,0,0,0,21.648,126.454Z" transform="translate(0 -123.74)"/></g></g></svg>