<svg xmlns="http://www.w3.org/2000/svg" width="24.565" height="24.565" viewBox="0 0 24.565 24.565"><defs><style>.a{fill:#5064cc;}</style></defs><g transform="matrix(0.966, 0.259, -0.259, 0.966, 5.191, 0)"><g transform="translate(0 0)"><path class="a" d="M18.448,13.165a11.388,11.388,0,0,1-3.576-.57,1.635,1.635,0,0,0-1.59.335l-2.255,1.7a12.463,12.463,0,0,1-5.6-5.6l1.652-2.2a1.621,1.621,0,0,0,.4-1.643A11.405,11.405,0,0,1,6.9,1.609,1.611,1.611,0,0,0,5.293,0H1.609A1.611,1.611,0,0,0,0,1.609,18.468,18.468,0,0,0,18.448,20.057a1.611,1.611,0,0,0,1.609-1.609V14.774A1.611,1.611,0,0,0,18.448,13.165Z"/></g></g></svg>