<svg xmlns="http://www.w3.org/2000/svg" width="13.577" height="13.576" viewBox="0 0 13.577 13.576"><defs><style>.a{fill:#44099f;}</style></defs><ellipse class="a" cx="0.663" cy="0.663" rx="0.663" ry="0.663" transform="translate(6.125 9.374)"/><path class="a" d="M6.788,0a6.788,6.788,0,1,0,6.788,6.788A6.785,6.785,0,0,0,6.788,0Zm0,12.516a5.728,5.728,0,1,1,5.728-5.728A5.724,5.724,0,0,1,6.788,12.516Z"/><path class="a" d="M178.121,128.5A2.124,2.124,0,0,0,176,130.621a.53.53,0,1,0,1.061,0,1.061,1.061,0,1,1,1.061,1.061.53.53,0,0,0-.53.53v1.326a.53.53,0,0,0,1.061,0v-.863a2.121,2.121,0,0,0-.53-4.176Z" transform="translate(-171.333 -125.093)"/></svg>