<svg xmlns="http://www.w3.org/2000/svg" width="27.53" height="27.53" viewBox="0 0 27.53 27.53"><defs><style>.a{fill:#fff;}</style></defs><g transform="translate(13.739) rotate(45)"><path class="a" d="M10.248,0a2.083,2.083,0,0,0-.872.524L.523,9.376A2.088,2.088,0,0,0,0,10.248L8.54,8.54Zm0,0" transform="translate(1.362 0.016)"/><path class="a" d="M18.89,5.72,13.709.54A2.083,2.083,0,0,0,12.778,0L10.948,9.154A.571.571,0,0,1,10.5,9.6L1.345,11.433a2.088,2.088,0,0,0,.54.931l.455.455L.167,14.992a.571.571,0,0,0,.808.808l2.173-2.173.923.923-3.9,3.9a.571.571,0,1,0,.808.808l3.9-3.9.923.923L3.63,18.454a.571.571,0,1,0,.808.808L6.61,17.089l.455.455a2.106,2.106,0,0,0,2.972,0L18.89,8.692A2.1,2.1,0,0,0,18.89,5.72Zm0,0" transform="translate(0 0)"/></g></svg>