<svg xmlns="http://www.w3.org/2000/svg" width="30.745" height="30.745" viewBox="0 0 30.745 30.745"><defs><style>.a{fill:#52f1ec;}</style></defs><g transform="translate(0)"><path class="a" d="M241,2.433h0q.275-.019.553-.026l.069,0-.069,0c.115,0,.231-.005.346-.005s.233,0,.349.005l-.071,0,.071,0q.277.008.551.026h0V.9a.9.9,0,0,0-1.8,0V2.433h0Z" transform="translate(-226.528)"/><path class="a" d="M471.482,241.207h0c0,.01,0,.021,0,.031C471.483,241.227,471.482,241.217,471.482,241.207Z" transform="translate(-443.169 -226.723)"/><path class="a" d="M471.481,270.311h0c0-.01,0-.021,0-.031C471.483,270.29,471.482,270.3,471.481,270.311Z" transform="translate(-443.169 -254.05)"/><path class="a" d="M40.483,270.311h0c0-.01,0-.021,0-.031C40.482,270.29,40.482,270.3,40.483,270.311Z" transform="translate(-38.05 -254.05)"/><path class="a" d="M2.431,242.952q-.011-.163-.017-.326.006.144.015.288c-.017-.272-.026-.544-.026-.819s.009-.547.026-.819q-.009.144-.015.288.007-.164.017-.326v.012c0-.014,0-.029,0-.043H.888a.888.888,0,1,0,0,1.777H2.432c0-.014,0-.029,0-.043C2.43,242.944,2.431,242.948,2.431,242.952Z" transform="translate(0 -226.722)"/><path class="a" d="M40.483,241.207h0c0,.01,0,.021,0,.031C40.482,241.227,40.483,241.217,40.483,241.207Z" transform="translate(-38.05 -226.723)"/><path class="a" d="M182.906,275.858h-4.2a2.635,2.635,0,0,0-2.7,2.556v2.248h9.608v-2.248A2.635,2.635,0,0,0,182.906,275.858Z" transform="translate(-165.431 -259.293)"/><path class="a" d="M64.093,53.459a.888.888,0,0,1,.888-.888H66.4A12.969,12.969,0,0,0,54.359,40.52v1.47a.9.9,0,0,1-1.8,0V40.52A12.969,12.969,0,0,0,40.519,52.571h1.416a.888.888,0,1,1,0,1.777H40.519A12.969,12.969,0,0,0,52.558,66.4v-1.47a.9.9,0,1,1,1.8,0V66.4A12.969,12.969,0,0,0,66.4,54.348H64.981A.888.888,0,0,1,64.093,53.459ZM53.458,44.532a3.3,3.3,0,1,1-3.3,3.3A3.306,3.306,0,0,1,53.458,44.532Zm6.605,15.122a1.619,1.619,0,0,1-1.632,1.6H48.485a1.619,1.619,0,0,1-1.632-1.6V57.208a4.437,4.437,0,0,1,4.5-4.357h4.2a4.437,4.437,0,0,1,4.5,4.357Z" transform="translate(-38.086 -38.087)"/><ellipse class="a" cx="1.501" cy="1.501" rx="1.501" ry="1.501" transform="translate(13.871 8.247)"/><path class="a" d="M242.249,471.506c-.116,0-.232.005-.349.005s-.231,0-.346-.005q-.277-.008-.553-.026h0v1.532a.9.9,0,0,0,1.8,0V471.48h0Q242.526,471.5,242.249,471.506Z" transform="translate(-226.528 -443.168)"/><path class="a" d="M473.036,241.207h-1.544c0,.014,0,.029,0,.043,0,0,0-.008,0-.012q.01.163.017.326c0-.1-.009-.192-.015-.288.017.271.026.544.026.819s-.01.547-.026.819q.009-.144.015-.288-.007.164-.017.326s0-.008,0-.012c0,.014,0,.029,0,.043h1.544a.888.888,0,1,0,0-1.777Z" transform="translate(-443.18 -226.723)"/></g></svg>