<svg xmlns="http://www.w3.org/2000/svg" width="14.004" height="18.002" viewBox="0 0 14.004 18.002"><defs><style>.a{fill:#eb0808;}</style></defs><g transform="translate(0)"><path class="a" d="M126.551,1.087h3.009v.506h1.087V1.016A1.016,1.016,0,0,0,129.632,0H126.48a1.017,1.017,0,0,0-1.015,1.016v.577h1.087Zm0,0" transform="translate(-121.054)"/><path class="a" d="M51.169,167.75h-10.2a.478.478,0,0,0-.477.517l.853,10.545a1.133,1.133,0,0,0,1.128,1.042h7.192a1.133,1.133,0,0,0,1.128-1.042l.853-10.544A.478.478,0,0,0,51.169,167.75Zm-7.73,10.979H43.4a.543.543,0,0,1-.542-.51l-.534-8.657a.543.543,0,1,1,1.085-.067l.534,8.657A.543.543,0,0,1,43.438,178.729Zm3.18-.542a.543.543,0,0,1-1.087,0V169.53a.543.543,0,0,1,1.087,0Zm3.191-8.625-.51,8.657a.543.543,0,0,1-.542.511h-.032a.543.543,0,0,1-.51-.574l.51-8.657a.543.543,0,0,1,1.085.064Zm0,0" transform="translate(-39.066 -161.852)"/><path class="a" d="M13.982,77.753l-.357-1.07a.691.691,0,0,0-.655-.472H1.036a.691.691,0,0,0-.655.472l-.357,1.07a.449.449,0,0,0,.425.59H13.556a.442.442,0,0,0,.237-.069A.448.448,0,0,0,13.982,77.753Zm0,0" transform="translate(-0.001 -73.531)"/></g></svg>