<svg xmlns="http://www.w3.org/2000/svg" width="21.495" height="20.798" viewBox="0 0 21.495 20.798"><defs><style>.a{fill:#3cb45c;}</style></defs><path class="a" d="M15.831,4.542a5.67,5.67,0,0,0-5.664,5.664v2.461H1.236A1.236,1.236,0,0,0,0,13.9V24.1A1.236,1.236,0,0,0,1.236,25.34H13.9A1.236,1.236,0,0,0,15.139,24.1V13.9A1.236,1.236,0,0,0,13.9,12.667h-.67V10.206a2.6,2.6,0,0,1,5.2,0,1.533,1.533,0,1,0,3.066,0A5.67,5.67,0,0,0,15.831,4.542ZM8.77,19.124V21.15a1.2,1.2,0,1,1-2.4,0V19.124a1.942,1.942,0,1,1,2.4,0Z" transform="translate(0 -4.542)"/></svg>